<svg viewBox="0 0 39 16" xmlns="http://www.w3.org/2000/svg"><path d="m7.0894923 2.05521175c-.4547396.5384503-1.18232295.9631435-1.90990631.90247305-.09094791-.72804549.26526477-1.50159382.6821094-1.97937367.45473959-.55361793 1.25053388-.9479759 1.89474827-.97831113.07578997.75838072-.21979077 1.50159382-.66695136 2.05521175zm.6593724 1.04656539c-1.05348005-.06067046-1.95538025.59912076-2.4555938.59912076-.50779255 0-1.27327087-.56878554-2.10696013-.55361792-1.08379603.01516761-2.09180213.629456-2.64506863 1.60776712-1.13684899 1.95662225-.29558074 4.85363658.80337328 6.4462361.53810852.788716 1.18232294 1.65327 2.03117018 1.6229347.80337329-.0303352 1.12169101-.5232826 2.09180214-.5232826.97769013 0 1.25811288.5232826 2.10696012.508115.87916325-.0151676 1.43242973-.7887159 1.97053821-1.5774319.61389843-.8948892.86400523-1.76702701.87916323-1.81252987-.015158-.01516762-1.69769447-.65979124-1.71285246-2.60124588-.01515799-1.62293473 1.32632386-2.39648307 1.38695576-2.44198591-.75789932-1.12240346-1.94022224-1.24374438-2.3494879-1.2740796zm6.0859316-2.19930409v11.82315535h1.8341164v-4.04216922h2.5389627c2.3191719 0 3.9486554-1.59259947 3.9486554-3.89807685s-1.5991675-3.88290928-3.8880234-3.88290928zm1.8341164 1.54709667h2.114539c1.5915886 0 2.5010678.84938641 2.5010678 2.34339641 0 1.49401002-.9094792 2.35098023-2.5086467 2.35098023h-2.1069601zm9.8375332 10.36706448c1.152007 0 2.220645-.5839533 2.7057005-1.5091777h.037895v1.4181719h1.6976945v-5.88503432c0-1.70635662-1.3642188-2.80600866-3.4635999-2.80600866-1.9478012 0-3.38781 1.11481965-3.4408629 2.64674871h1.6522205c.1364218-.72804549.8109523-1.20582535 1.7355894-1.20582535 1.1216911 0 1.7507475.5232827 1.7507475 1.48642621v.65220742l-2.288856.13650851c-2.1296971.12892474-3.281704 1.0010626-3.281704 2.51782398 0 1.531929 1.1899019 2.5481593 2.8951754 2.5481593zm.4926345-1.4030044c-.9776901 0-1.5991676-.470196-1.5991676-1.1906577 0-.74321316.5987406-1.17549017 1.7431685-1.24374442l2.0387492-.12892467v.66737502c0 1.10723577-.9397952 1.89595177-2.1827501 1.89595177zm6.2147745 4.5275329c1.7886424 0 2.6299106-.6825426 3.365073-2.752922l3.2210721-9.03989817h-1.8644323l-2.1600131 6.98468637h-.037895l-2.160013-6.98468637h-1.9174853l3.1073872 8.60762117-.1667379.5232826c-.2804227.8873055-.7351623 1.2285769-1.5461146 1.2285769-.1440009 0-.4244236-.0151677-.5381085-.0303353v1.4181719c.1061059.0303353.5608455.0455029.6972674.0455029z" fill="#fff"/></svg>